<?xml version="1.0" encoding="UTF-8"?><svg id="a" xmlns="http://www.w3.org/2000/svg" viewBox="0 0 595.28 841.89"><defs><style>.b{letter-spacing:-.11em;}.c{font-size:7.11px;letter-spacing:-.05em;}.c,.d,.e,.f,.g,.h,.i,.j,.k,.l,.m,.n,.o{font-family:TTNorms-MediumItalic, TT Norms;}.c,.d,.e,.h,.j,.m,.p,.o{fill:#1d1d1b;}.q{letter-spacing:-.06em;}.r{letter-spacing:0em;}.s{letter-spacing:0em;}.t{letter-spacing:-.07em;}.u{stroke:#662483;stroke-width:.5px;}.u,.v,.w,.x,.y,.a`,.aa,.ab{fill:none;stroke-miterlimit:10;}.u,.y{stroke-dasharray:0 2;}.ac{letter-spacing:-.01em;}.ad{letter-spacing:-.03em;}.ae{letter-spacing:-.04em;}.v{stroke:#000;}.af{letter-spacing:-.01em;}.ag{letter-spacing:-.09em;}.ah{letter-spacing:-.05em;}.ai{font-size:9.52px;}.ai,.aj,.ak,.l,.al{fill:#f39200;}.ai,.ak,.am,.an,.ao{font-family:Gilroy-ExtraBold, Gilroy;}.ap{letter-spacing:0em;}.aq{letter-spacing:-.01em;}.d{font-size:7.31px;letter-spacing:-.05em;}.ar{letter-spacing:-.07em;}.as{letter-spacing:-.03em;}.at{letter-spacing:-.05em;}.au{letter-spacing:-.02em;}.av{letter-spacing:-.09em;}.aw{letter-spacing:-.07em;}.ax{letter-spacing:-.02em;}.ay,.f{letter-spacing:-.05em;}.b`{letter-spacing:0em;}.ba{letter-spacing:-.05em;}.bb{letter-spacing:-.09em;}.ak{font-size:8.21px;}.w,.y{stroke:#c9c8ce;}.x{stroke:#c7e4f9;}.bc{letter-spacing:-.02em;}.bd{letter-spacing:-.07em;}.be{letter-spacing:0em;}.e,.k,.m,.n{font-size:8.03px;}.f,.bf{fill:#c7e4f9;}.f,.i,.l{font-size:11.01px;}.a`{stroke:#f39200;}.a`,.al{opacity:.2;}.bg{letter-spacing:-.03em;}.bh{letter-spacing:-.02em;}.bi,.g,.h{letter-spacing:-.05em;}.bj{letter-spacing:-.08em;}.aa{stroke:#c6c6c6;}.bk{letter-spacing:0em;}.am{font-size:7.45px;}.am,.an,.ao{fill:#1d71b8;}.bl{letter-spacing:.01em;}.bm{letter-spacing:0em;}.bn,.k,.m,.n{letter-spacing:-.05em;}.g,.h,.j{font-size:7.91px;}.g,.k{fill:#b2b2b2;}.bo{letter-spacing:0em;}.bp{letter-spacing:0em;}.bq{letter-spacing:0em;}.br{font-family:ZonaPro-LightItalic, ZonaPro-LightItalic;font-size:16.12px;}.an{font-size:6.46px;}.i,.bs{fill:#c9c8ce;}.bt{letter-spacing:-.03em;}.bu,.l{letter-spacing:-.05em;}.bv{letter-spacing:-.03em;}.bw{letter-spacing:-.07em;}.bx{letter-spacing:0em;}.by{letter-spacing:0em;}.ao{font-size:5.56px;}.c`{letter-spacing:0em;}.ab{stroke:#b2b2b2;}.ca{letter-spacing:0em;}.cb{letter-spacing:-.05em;}.cc{letter-spacing:-.1em;}.cd{letter-spacing:-.04em;}.n{fill:#161616;}.ce{letter-spacing:0em;}.cf{letter-spacing:-.02em;}.cg{fill:#c6c6c6;}.ch{letter-spacing:-.01em;}.ci{letter-spacing:-.07em;}.cj{letter-spacing:-.02em;}.o{font-size:7.17px;letter-spacing:-.05em;}</style></defs><rect class="al" x="231.44" y="378.15" width="59.45" height="15.65" rx="5.85" ry="5.85"/><text class="ai" transform="translate(241.03 389.56)"><tspan x="0" y="0">US</tspan><tspan class="bc" x="11.76" y="0">U</tspan><tspan class="by" x="17.76" y="0">ARIO</tspan></text><g><ellipse class="w" cx="208.7" cy="343.56" rx="28.79" ry="7.69"/><text class="m" transform="translate(187.36 345.78)"><tspan x="0" y="0">psword_hash</tspan></text></g><g><ellipse class="w" cx="237.46" cy="323.63" rx="28.79" ry="7.69"/><text class="m" transform="translate(221.99 325.85)"><tspan x="0" y="0">user_mail</tspan></text></g><g><ellipse class="w" cx="299.17" cy="323.63" rx="28.79" ry="7.69"/><g><text class="n" transform="translate(282.74 325.85)"><tspan x="0" y="0">nickname</tspan></text><rect class="p" x="282.67" y="326.62" width="33.01" height=".58"/></g></g><g><ellipse class="w" cx="327.96" cy="343.56" rx="28.79" ry="7.69"/><text class="m" transform="translate(309.27 345.78)"><tspan x="0" y="0">fec_registro</tspan></text></g><g><ellipse class="w" cx="528.29" cy="184.22" rx="28.79" ry="7.69"/><text class="m" transform="translate(509.59 186.44)"><tspan x="0" y="0">fec_ganada</tspan></text></g><g><ellipse class="y" cx="356.75" cy="363.49" rx="28.79" ry="7.69"/><text class="m" transform="translate(339.53 365.71)"><tspan x="0" y="0">edad_user</tspan></text></g><g><ellipse class="w" cx="172.27" cy="363.49" rx="28.79" ry="7.69"/><text class="m" transform="translate(157.27 365.46)"><tspan x="0" y="0">pais_user</tspan></text></g><line class="aa" x1="201.05" y1="363.49" x2="261" y2="378.15"/><line class="aa" x1="201.05" y1="412.92" x2="261.16" y2="393.81"/><rect class="al" x="281.73" y="412.42" width="59.45" height="15.65" rx="5.85" ry="5.85"/><text class="ai" transform="translate(289.31 423.82)"><tspan class="af" x="0" y="0">C</tspan><tspan class="by" x="6.75" y="0">R</tspan><tspan class="bk" x="12.61" y="0">E</tspan><tspan class="by" x="17.75" y="0">ADOR</tspan></text><rect class="al" x="171.33" y="412.42" width="59.45" height="15.65" rx="5.85" ry="5.85"/><text class="ai" transform="translate(191.96 423.82)"><tspan class="as" x="0" y="0">F</tspan><tspan x="4.67" y="0">AN</tspan></text><g><ellipse class="w" cx="402.98" cy="406.41" rx="28.79" ry="7.69"/><text class="m" transform="translate(386.7 408.46)"><tspan x="0" y="0">biog_user</tspan></text></g><g><ellipse class="w" cx="402.98" cy="424.78" rx="28.79" ry="7.69"/><text class="e" transform="translate(381.25 427.01)"><tspan class="bn" x="0" y="0">cuen</tspan><tspan class="bw" x="16.36" y="0">t</tspan><tspan class="bn" x="18.85" y="0">aB_user</tspan></text></g><g><ellipse class="w" cx="402.98" cy="443.16" rx="28.79" ry="7.69"/><text class="m" transform="translate(390.78 445.38)"><tspan x="0" y="0">is_nsfw</tspan></text></g><g><path class="w" d="M402.98,470.77c-15.01,0-30.21-3.13-30.21-9.11s15.2-9.11,30.21-9.11,30.21,3.13,30.21,9.11-15.2,9.11-30.21,9.11Z"/><ellipse class="w" cx="402.98" cy="461.66" rx="28.79" ry="7.69"/><text class="m" transform="translate(389.78 463.89)"><tspan x="0" y="0">rrss_user</tspan></text></g><line class="aa" x1="374.2" y1="406.41" x2="341.18" y2="420.61"/><line class="aa" x1="374.2" y1="424.78" x2="341.18" y2="420.61"/><line class="aa" x1="374.2" y1="443.16" x2="341.18" y2="420.61"/><line class="aa" x1="208.7" y1="351.25" x2="261" y2="378.15"/><line class="aa" x1="237.46" y1="331.32" x2="261" y2="378.15"/><line class="aa" x1="299.17" y1="331.32" x2="261" y2="378.15"/><line class="aa" x1="327.96" y1="351.25" x2="261" y2="378.15"/><line class="aa" x1="327.96" y1="363.49" x2="261" y2="378.15"/><line class="aa" x1="311.45" y1="412.92" x2="261.16" y2="393.81"/><path class="cg" d="M304.15,397.51c-8.88,5.85-20.3,8.45-30.7,9.51-17.56,1.78-39.84-.16-53.76-12.23-.29-.25-.72,.17-.42,.42,13.67,11.86,35.24,13.99,52.53,12.56,11.06-.92,23.23-3.53,32.66-9.74,.32-.21,.02-.73-.3-.52h0Z"/><text class="k" transform="translate(256.69 405.24)"><tspan x="0" y="0">N</tspan></text><text class="k" transform="translate(219.47 466.53)"><tspan x="0" y="0">1</tspan></text><text class="k" transform="translate(266.25 465.84)"><tspan x="0" y="0">N</tspan></text><text class="k" transform="translate(330.9 450.64)"><tspan x="0" y="0">1</tspan></text><text class="k" transform="translate(344.92 476.49)"><tspan x="0" y="0">N</tspan></text><text class="k" transform="translate(475.41 699.37)"><tspan x="0" y="0">N</tspan></text><text class="k" transform="translate(525.48 699.37)"><tspan x="0" y="0">1</tspan></text><text class="k" transform="translate(181.7 514.28)"><tspan x="0" y="0">1</tspan></text><text class="k" transform="translate(181.26 555.71)"><tspan x="0" y="0">N</tspan></text><rect class="al" x="406.87" y="222.78" width="48.77" height="15.65" rx="5.85" ry="5.85"/><text class="ai" transform="translate(412.3 233.6)"><tspan class="ah" x="0" y="0">T</tspan><tspan class="by" x="4.67" y="0">A</tspan><tspan class="bv" x="11.14" y="0">R</tspan><tspan x="16.67" y="0">JE</tspan><tspan class="ba" x="27.18" y="0">T</tspan><tspan x="31.85" y="0">A</tspan></text><g><ellipse class="w" cx="344.23" cy="211.86" rx="28.79" ry="7.69"/><text class="e" transform="translate(329.78 213.92)"><tspan class="bn" x="0" y="0">id</tspan><tspan class="b" x="6.1" y="0">T</tspan><tspan class="cb" x="9.79" y="0">arje</tspan><tspan class="aw" x="22.34" y="0">t</tspan><tspan class="bn" x="24.83" y="0">a</tspan></text><rect class="p" x="329.98" y="214.58" width="28.69" height=".58"/></g><g><ellipse class="w" cx="344.23" cy="230.97" rx="28.79" ry="7.69"/><text class="e" transform="translate(324.92 233.2)"><tspan class="bn" x="0" y="0">ult4_digi</tspan><tspan class="bw" x="27.36" y="0">t</tspan><tspan class="cb" x="29.84" y="0">os</tspan></text></g><g><ellipse class="w" cx="344.23" cy="250.08" rx="28.79" ry="7.69"/><text class="m" transform="translate(325.36 252.31)"><tspan x="0" y="0">nom_titular</tspan></text></g><g><ellipse class="w" cx="344.23" cy="269.2" rx="28.79" ry="7.69"/><text class="m" transform="translate(326.69 271.42)"><tspan x="0" y="0">fecha_exp</tspan></text></g><g><path class="w" d="M344.23,297.42c-15.01,0-30.21-3.13-30.21-9.11s15.2-9.11,30.21-9.11,30.21,3.13,30.21,9.11-15.2,9.11-30.21,9.11Z"/><ellipse class="w" cx="344.23" cy="288.31" rx="28.79" ry="7.69"/><text class="e" transform="translate(326.03 290.53)"><tspan class="bn" x="0" y="0">marca_</tspan><tspan class="aw" x="23.91" y="0">t</tspan><tspan class="bn" x="26.39" y="0">arj</tspan></text></g><line class="aa" x1="373.4" y1="211.86" x2="406.41" y2="230.97"/><line class="aa" x1="373.4" y1="230.97" x2="406.41" y2="230.97"/><line class="aa" x1="373.4" y1="250.08" x2="406.41" y2="230.97"/><line class="aa" x1="373.4" y1="269.2" x2="406.41" y2="230.97"/><line class="aa" x1="373.4" y1="288.31" x2="406.41" y2="230.97"/><rect class="al" x="118.84" y="566.42" width="34.16" height="15.65" rx="5.85" ry="5.85"/><text class="ai" transform="translate(124.26 577.25)"><tspan x="0" y="0">NIVEL</tspan></text><g><ellipse class="w" cx="101.77" cy="592.28" rx="28.79" ry="7.69"/><text class="m" transform="translate(88.95 594.33)"><tspan x="0" y="0">idNivel</tspan></text><rect class="p" x="87.53" y="594.99" width="24.44" height=".58"/></g><g><ellipse class="w" cx="101.77" cy="637.18" rx="28.79" ry="7.69"/><text class="m" transform="translate(84.48 639.41)"><tspan x="0" y="0">precio_niv</tspan></text></g><g><ellipse class="w" cx="101.77" cy="614.41" rx="28.79" ry="7.69"/><text class="m" transform="translate(82.48 616.64)"><tspan x="0" y="0">nombre_niv</tspan></text></g><g><ellipse class="w" cx="101.77" cy="660.1" rx="28.79" ry="7.69"/><text class="m" transform="translate(86.39 662.32)"><tspan x="0" y="0">desc_niv</tspan></text></g><rect class="al" x="181.76" y="675.77" width="78.23" height="15.65" rx="5.85" ry="5.85"/><text class="ai" transform="translate(191.35 687.18)"><tspan class="bc" x="0" y="0">C</tspan><tspan class="c`" x="6.66" y="0">OMEN</tspan><tspan class="ah" x="33.4" y="0">T</tspan><tspan x="38.07" y="0">ARIO</tspan></text><g><ellipse class="w" cx="190.44" cy="708.93" rx="28.79" ry="7.69"/><text class="j" transform="translate(169.65 711.05)"><tspan class="ci" x="0" y="0">t</tspan><tspan class="bi" x="2.45" y="0">ext_coment</tspan></text></g><g><ellipse class="w" cx="126.81" cy="708.93" rx="28.79" ry="7.69"/><g><text class="h" transform="translate(110.12 711.05)"><tspan x="0" y="0">idComent</tspan></text><rect class="p" x="110.31" y="712.19" width="32.57" height=".58"/></g></g><g><ellipse class="w" cx="254.08" cy="708.93" rx="28.79" ry="7.69"/><text class="c" transform="translate(228.94 710.8)"><tspan x="0" y="0">id_origenComent</tspan></text></g><line class="aa" x1="220.87" y1="691.42" x2="190.44" y2="701.23"/><line class="aa" x1="220.87" y1="691.42" x2="254.08" y2="701.23"/><rect class="bf" x="316.28" y="456.15" width="24.1" height="24.1" transform="translate(-234.9 369.3) rotate(-45)"/><text class="am" transform="translate(319.52 470.36)"><tspan x="0" y="0">SUBE</tspan></text><rect class="bf" x="230.22" y="453.93" width="28.53" height="28.53" transform="translate(-259.46 310.01) rotate(-45)"/><text class="ao" transform="translate(230.13 469.81)"><tspan x="0" y="0">PE</tspan><tspan class="ch" x="6.22" y="0">R</tspan><tspan class="ap" x="9.56" y="0">TEN</tspan><tspan class="bx" x="19.23" y="0">E</tspan><tspan class="aq" x="22.14" y="0">C</tspan><tspan class="ap" x="26.08" y="0">E</tspan></text><rect class="bf" x="167.58" y="520.61" width="24.1" height="24.1" transform="translate(-324.03 283.03) rotate(-45)"/><text class="an" transform="translate(169.69 535.08)"><tspan x="0" y="0">DEFINE</tspan></text><line class="aa" x1="328.49" y1="451.14" x2="328.49" y2="428.31"/><rect class="al" x="330.11" y="497.43" width="78.23" height="15.65" rx="5.85" ry="5.85"/><text class="ai" transform="translate(339.7 508.84)"><tspan x="0" y="0">PUBLI</tspan><tspan class="af" x="24.76" y="0">C</tspan><tspan class="ax" x="31.52" y="0">A</tspan><tspan class="af" x="37.76" y="0">C</tspan><tspan x="44.51" y="0">IÓN</tspan></text><g><ellipse class="w" cx="503.77" cy="433.39" rx="28.79" ry="7.69"/><text class="h" transform="translate(491.06 435.86)"><tspan x="0" y="0">fec_pub</tspan></text></g><g><ellipse class="w" cx="236.03" cy="581.52" rx="30.21" ry="9.11"/><ellipse class="w" cx="236.03" cy="581.52" rx="28.79" ry="7.69"/><text class="h" transform="translate(213.5 583.65)"><tspan x="0" y="0">resolucion_vid</tspan></text></g><g><ellipse class="w" cx="236.03" cy="604.44" rx="28.79" ry="7.69"/><text class="j" transform="translate(214.84 606.57)"><tspan class="bi" x="0" y="0">urlse</tspan><tspan class="au" x="15.29" y="0">r</tspan><tspan class="bi" x="17.89" y="0">ver_vid</tspan></text></g><g><ellipse class="w" cx="236.03" cy="558.61" rx="28.79" ry="7.69"/><text class="h" transform="translate(215.51 560.73)"><tspan x="0" y="0">duracion_vid</tspan></text></g><g><ellipse class="w" cx="310.94" cy="593.62" rx="28.79" ry="7.69"/><text class="j" transform="translate(288.41 595.74)"><tspan class="bi" x="0" y="0">resumen_no</tspan><tspan class="ar" x="38.92" y="0">t</tspan><tspan class="bi" x="41.38" y="0">a</tspan></text></g><g><ellipse class="w" cx="310.94" cy="570.7" rx="28.79" ry="7.69"/><text class="j" transform="translate(290.42 572.82)"><tspan class="bi" x="0" y="0">con</tspan><tspan class="ci" x="12.09" y="0">t</tspan><tspan class="bi" x="14.54" y="0">en_no</tspan><tspan class="ar" x="33.43" y="0">t</tspan><tspan class="bi" x="35.88" y="0">a</tspan></text></g><g><ellipse class="w" cx="429.76" cy="593.24" rx="30.21" ry="9.11"/><ellipse class="w" cx="429.76" cy="593.24" rx="28.79" ry="7.69"/><text class="j" transform="translate(410 595.37)"><tspan class="bi" x="0" y="0">forma</tspan><tspan class="ci" x="19.65" y="0">t</tspan><tspan class="bi" x="22.1" y="0">o_img</tspan></text></g><g><ellipse class="w" cx="429.76" cy="616.16" rx="28.79" ry="7.69"/><text class="j" transform="translate(411.22 618.28)"><tspan class="bi" x="0" y="0">alt_</tspan><tspan class="ar" x="10.95" y="0">t</tspan><tspan class="at" x="13.4" y="0">extimg</tspan></text></g><g><ellipse class="w" cx="516.67" cy="646.65" rx="28.79" ry="7.69"/><text class="j" transform="translate(499.13 648.77)"><tspan class="ci" x="0" y="0">t</tspan><tspan class="bi" x="2.45" y="0">ext_opcion</tspan></text></g><g><ellipse class="w" cx="452.74" cy="646.65" rx="28.79" ry="7.69"/><text class="d" transform="translate(429.95 648.4)"><tspan x="0" y="0">nombreOpcion</tspan></text><rect x="429.86" y="649.05" width="45.91" height=".54"/></g><g><ellipse class="w" cx="429.76" cy="570.33" rx="28.79" ry="7.69"/><text class="h" transform="translate(415.93 572.45)"><tspan x="0" y="0">dim_img</tspan></text></g><g><ellipse class="w" cx="515.27" cy="560.64" rx="28.79" ry="7.69"/><text class="j" transform="translate(500.77 562.77)"><tspan class="bi" x="0" y="0">fec_limi</tspan><tspan class="ci" x="23.56" y="0">t</tspan><tspan class="bi" x="26.01" y="0">e</tspan></text></g><g><ellipse class="w" cx="503.77" cy="452.93" rx="28.79" ry="7.69"/><text class="m" transform="translate(486.96 455.16)"><tspan x="0" y="0">titulo_pub</tspan></text></g><g><ellipse class="w" cx="503.77" cy="472.47" rx="28.79" ry="7.69"/><g><text class="m" transform="translate(481.43 474.7)"><tspan x="0" y="0">idPublicacion</tspan></text><rect x="481.63" y="475.23" width="44.83" height=".58"/></g></g><g><ellipse class="w" cx="503.77" cy="492.01" rx="28.79" ry="7.69"/><text class="m" transform="translate(483.74 494.24)"><tspan x="0" y="0">es_exclusiva</tspan></text></g><line class="aa" x1="333.53" y1="539.68" x2="369.2" y2="513.09"/><g><rect class="al" x="299.12" y="540.06" width="69.34" height="15.65" rx="5.85" ry="5.85"/><text class="ai" transform="translate(302.41 551.46)"><tspan x="0" y="0">N</tspan><tspan class="cd" x="6.38" y="0">O</tspan><tspan class="ah" x="13.51" y="0">T</tspan><tspan class="ac" x="18.17" y="0">A</tspan><tspan class="bc" x="24.51" y="0">S</tspan><tspan class="q" x="29.89" y="0">_</tspan><tspan x="34.27" y="0">TEX</tspan><tspan class="cd" x="50.37" y="0">T</tspan><tspan x="55.13" y="0">O</tspan></text></g><g><rect class="al" x="370.75" y="539.68" width="59.02" height="15.65" rx="5.85" ry="5.85"/><text class="ai" transform="translate(377.14 551.09)"><tspan x="0" y="0">IM</tspan><tspan class="ad" x="10.48" y="0">Á</tspan><tspan x="16.72" y="0">GENES</tspan></text></g><g><rect class="al" x="447.25" y="529.03" width="59.02" height="15.65" rx="5.85" ry="5.85"/><text class="ai" transform="translate(450.97 540.43)"><tspan x="0" y="0">EN</tspan><tspan class="af" x="11.43" y="0">C</tspan><tspan x="18.18" y="0">UE</tspan><tspan class="bt" x="29.42" y="0">S</tspan><tspan class="ba" x="34.76" y="0">T</tspan><tspan class="ac" x="39.42" y="0">A</tspan><tspan x="45.76" y="0">S</tspan></text></g><g><path class="a`" d="M515.99,597.25h2.11c3.82,0,6.91,3.1,6.91,6.91v39.49c0,3.82-3.1,6.91-6.91,6.91h-2.11c-3.82,0-6.91-3.1-6.91-6.91v-39.49c0-3.82,3.1-6.91,6.91-6.91Z" transform="translate(1140.95 106.87) rotate(90)"/><rect class="al" x="491.6" y="617.16" width="50.88" height="13.49" rx="5.85" ry="5.85"/><text class="ak" transform="translate(496.54 626.99)"><tspan x="0" y="0">O</tspan><tspan class="b`" x="6.47" y="0">P</tspan><tspan class="be" x="11.27" y="0">C</tspan><tspan x="17.1" y="0">IONES</tspan></text></g><g><rect class="al" x="236.03" y="528.99" width="41.24" height="15.65" rx="5.85" ry="5.85"/><text class="ai" transform="translate(239.9 540.53)"><tspan x="0" y="0">VID</tspan><tspan class="bq" x="15.72" y="0">E</tspan><tspan class="ad" x="20.72" y="0">O</tspan><tspan class="c`" x="27.98" y="0">S</tspan></text></g><line class="aa" x1="474.99" y1="492.01" x2="408.63" y2="503.72"/><line class="aa" x1="400.97" y1="539.68" x2="369.2" y2="513.09"/><path class="cg" d="M412.18,516.79c-8.88,5.85-20.3,8.45-30.7,9.51-17.56,1.78-39.84-.16-53.76-12.23-.29-.25-.72,.17-.42,.42,13.67,11.86,35.24,13.99,52.53,12.56,11.06-.92,23.23-3.53,32.66-9.74,.32-.21,.02-.73-.3-.52h0Z"/><text class="k" transform="translate(366.05 525.19)"><tspan x="0" y="0">1</tspan></text><line class="aa" x1="255.25" y1="529.03" x2="369.2" y2="513.09"/><line class="aa" x1="477.58" y1="528.99" x2="369.2" y2="513.09"/><polyline class="aa" points="269.91 544.65 269.91 558.61 264.82 558.61"/><polyline class="aa" points="269.91 544.65 269.91 581.52 264.82 581.52"/><polyline class="aa" points="269.91 544.65 269.91 604.44 264.82 604.44"/><polyline class="aa" points="130.99 591.68 136.08 591.68 136.08 582.17"/><polyline class="aa" points="130.99 614.6 136.08 614.6 136.08 591.68 136.08 582.17"/><polyline class="aa" points="130.99 637.51 136.08 637.51 136.08 614.6 136.08 591.68 136.08 582.17"/><polyline class="aa" points="344.81 555.4 344.81 569.36 339.73 569.36"/><polyline class="aa" points="344.81 555.4 344.81 593.62 339.73 593.62"/><polyline class="aa" points="393.21 555.03 393.21 570.33 400.97 570.33"/><polyline class="aa" points="393.21 555.03 393.21 593.24 400.97 593.24"/><polyline class="aa" points="393.21 555.03 393.21 616.16 400.97 616.16"/><polyline class="aa" points="469.52 544.68 469.52 593.61 477.29 593.61"/><polyline class="aa" points="366.91 497.57 366.91 468.19 344.93 468.19"/><path class="aa" d="M306.59,428.31v73.98l-126.99,.33c.01,4.33,.02,8.67,.03,13"/><path class="aa" d="M264.66,468.19l30.45,.02v-39.91"/><text class="k" transform="translate(422.35 283.65)"><tspan x="0" y="0">N</tspan></text><text class="k" transform="translate(469.17 161.92)"><tspan x="0" y="0">N</tspan></text><text class="k" transform="translate(466.77 211.19)"><tspan x="0" y="0">M</tspan></text><text class="k" transform="translate(425.13 328.8)"><tspan x="0" y="0">1</tspan></text><text class="k" transform="translate(383.47 656.54)"><tspan x="0" y="0">1</tspan></text><text class="k" transform="translate(334.17 656.54)"><tspan x="0" y="0">N</tspan></text><text class="k" transform="translate(364.09 684)"><tspan x="0" y="0">N</tspan></text><text class="k" transform="translate(193.4 644.87)"><tspan x="0" y="0">N</tspan></text><text class="k" transform="translate(157.59 644.87)"><tspan x="0" y="0">1</tspan></text><rect class="bf" x="417.51" y="288.19" width="28.53" height="28.53" transform="translate(-87.41 393.9) rotate(-45)"/><text class="am" transform="translate(422.27 304.62)"><tspan x="0" y="0">TIENE</tspan></text><rect class="bf" x="451.17" y="170.51" width="28.53" height="28.53" transform="translate(5.67 383.23) rotate(-45)"/><text class="am" transform="translate(455.27 186.93)"><tspan class="bg" x="0" y="0">G</tspan><tspan x="5.65" y="0">ANA</tspan></text><path class="aa" d="M431.56,283.48v-45.05"/><text class="k" transform="translate(107.88 287.68)"><tspan x="0" y="0">N</tspan></text><text class="k" transform="translate(44.7 539.68)"><tspan x="0" y="0">1</tspan></text><text class="k" transform="translate(62.37 570.42)"><tspan x="0" y="0">1</tspan></text><text class="k" transform="translate(109.88 333.75)"><tspan x="0" y="0">1</tspan></text><text class="k" transform="translate(153.7 180.19)"><tspan x="0" y="0">1</tspan></text><text class="k" transform="translate(174.61 149.48)"><tspan x="0" y="0">1</tspan></text><rect class="bf" x="103.04" y="292.47" width="28.53" height="28.53" transform="translate(-182.54 172.79) rotate(-45)"/><text class="am" transform="translate(103.12 308.9)"><tspan x="0" y="0">R</tspan><tspan class="bm" x="4.58" y="0">E</tspan><tspan x="8.61" y="0">ALI</tspan><tspan class="ca" x="19.34" y="0">Z</tspan><tspan x="23.4" y="0">A</tspan></text><rect class="bf" x="27.92" y="546.5" width="28.53" height="28.53" transform="translate(-384.17 194.08) rotate(-45)"/><text class="am" transform="translate(29.34 562.93)"><tspan x="0" y="0">APLI</tspan><tspan class="ce" x="15.13" y="0">C</tspan><tspan class="s" x="20.41" y="0">A</tspan></text><rect class="bf" x="137.62" y="137.33" width="28.53" height="28.53" transform="translate(-62.71 151.81) rotate(-45)"/><text class="am" transform="translate(137.71 153.76)"><tspan x="0" y="0">GENERA</tspan></text><path class="aa" d="M117.09,287.68v-49.24"/><rect class="al" x="140.85" y="460.45" width="63.72" height="15.65" rx="5.85" ry="5.85"/><text class="ai" transform="translate(146.27 471.27)"><tspan class="af" x="0" y="0">C</tspan><tspan class="ba" x="6.75" y="0">A</tspan><tspan x="12.75" y="0">T</tspan><tspan class="bq" x="17.9" y="0">E</tspan><tspan class="c`" x="22.9" y="0">GORÍA</tspan></text><g><ellipse class="w" cx="96.2" cy="450.98" rx="28.79" ry="7.69"/><text class="e" transform="translate(84.2 453.03)"><tspan class="bn" x="0" y="0">idCa</tspan><tspan class="aw" x="16.25" y="0">t</tspan><tspan class="bn" x="18.74" y="0">g</tspan></text><rect class="p" x="84.4" y="453.69" width="22.21" height=".58"/></g><g><ellipse class="w" cx="95.51" cy="469.64" rx="28.79" ry="7.69"/><text class="e" transform="translate(73.77 471.87)"><tspan class="bn" x="0" y="0">nombre_ca</tspan><tspan class="aw" x="36.54" y="0">t</tspan><tspan class="bn" x="39.02" y="0">g</tspan></text></g><g><ellipse class="w" cx="95.51" cy="488.31" rx="28.79" ry="7.69"/><text class="e" transform="translate(78.64 490.53)"><tspan class="bn" x="0" y="0">desc_ca</tspan><tspan class="aw" x="25.99" y="0">t</tspan><tspan class="cb" x="28.47" y="0">g</tspan></text></g><line class="aa" x1="225.01" y1="468.19" x2="204.56" y2="468.19"/><line class="aa" x1="140.85" y1="469.81" x2="124.27" y2="469.75"/><line class="aa" x1="140.85" y1="469.81" x2="124.99" y2="450.98"/><line class="aa" x1="140.85" y1="469.81" x2="124.29" y2="488.31"/><path class="aa" d="M179.63,549.69c.02,3.53,.03,7.05,.05,10.58-13,.04-25.99,.09-38.99,.13,0,2.01,0,4.02,0,6.03"/><polyline class="ab" points="291.06 381.7 431.77 381.7 431.77 323.02"/><path class="ab" d="M291.06,390.63c87.44-.09,174.87-.17,262.31-.26v269.34c-57.25-.34-114.51-.69-171.76-1.03"/><polyline class="ab" points="171.33 420.61 117.09 420.61 117.09 326.91"/><rect class="al" x="102.84" y="222.78" width="71.77" height="15.65" rx="5.85" ry="5.85"/><text class="ai" transform="translate(108.31 234.18)"><tspan x="0" y="0">SU</tspan><tspan class="bq" x="11.76" y="0">S</tspan><tspan class="af" x="17.29" y="0">C</tspan><tspan x="24.04" y="0">RI</tspan><tspan class="bp" x="32.57" y="0">P</tspan><tspan class="af" x="38.14" y="0">C</tspan><tspan x="44.89" y="0">IÓN</tspan></text><g><ellipse class="w" cx="236.41" cy="211.86" rx="28.79" ry="7.69"/><text class="e" transform="translate(215.07 214.09)"><tspan class="bn" x="0" y="0">es</tspan><tspan class="aw" x="7.18" y="0">t</tspan><tspan class="bn" x="9.66" y="0">ado_susc</tspan></text></g><g><ellipse class="w" cx="236.41" cy="230.97" rx="28.79" ry="7.69"/><text class="m" transform="translate(218.12 232.53)"><tspan x="0" y="0">precio_org</tspan></text></g><g><ellipse class="w" cx="236.41" cy="250.08" rx="28.79" ry="7.69"/><g><text class="m" transform="translate(214.95 251.74)"><tspan x="0" y="0">idSuscripcion</tspan></text><rect class="p" x="214.87" y="252.51" width="43.87" height=".58"/></g></g><g><ellipse class="w" cx="319.71" cy="111.96" rx="28.79" ry="7.69"/><g><text class="m" transform="translate(298.24 113.62)"><tspan x="0" y="0">idSuscripcion</tspan></text><line class="u" x1="298.39" y1="115.1" x2="342.04" y2="115.1"/></g></g><g><ellipse class="w" cx="236.41" cy="269.2" rx="28.79" ry="7.69"/><text class="m" transform="translate(214.87 271.42)"><tspan x="0" y="0">fec_inicioSusc</tspan></text></g><g><ellipse class="w" cx="236.41" cy="288.31" rx="28.79" ry="7.69"/><text class="m" transform="translate(218.53 290.53)"><tspan x="0" y="0">fec_renovd</tspan></text></g><line class="aa" x1="207.62" y1="211.86" x2="174.61" y2="230.97"/><line class="aa" x1="207.62" y1="230.97" x2="174.61" y2="230.97"/><line class="aa" x1="207.62" y1="250.08" x2="174.61" y2="230.97"/><line class="aa" x1="207.62" y1="269.2" x2="174.61" y2="230.97"/><line class="aa" x1="207.62" y1="288.31" x2="174.61" y2="230.97"/><line class="aa" x1="151.89" y1="221.42" x2="151.89" y2="174.8"/><line class="aa" x1="212.7" y1="151.6" x2="175.09" y2="151.6"/><path class="a`" d="M237.45,125.32h2.19c4.01,0,7.27,3.26,7.27,7.27v37.15c0,4.01-3.26,7.27-7.27,7.27h-2.19c-4.01,0-7.27-3.26-7.27-7.27v-37.15c0-4.01,3.26-7.27,7.27-7.27Z" transform="translate(389.71 -87.38) rotate(90)"/><rect class="al" x="214.12" y="144.22" width="48.85" height="13.89" rx="5.85" ry="5.85"/><text class="ai" transform="translate(217.88 154.6)"><tspan class="as" x="0" y="0">F</tspan><tspan class="ax" x="4.67" y="0">A</tspan><tspan class="af" x="10.91" y="0">C</tspan><tspan x="17.66" y="0">TURA</tspan></text><g><ellipse class="w" cx="272.65" cy="96.56" rx="28.79" ry="7.69"/><text class="m" transform="translate(254.5 98.69)"><tspan x="0" y="0">fec_emision</tspan></text></g><g><ellipse class="w" cx="324.22" cy="132.31" rx="28.79" ry="7.69"/><g><text class="e" transform="translate(304.78 134.06)"><tspan class="bn" x="0" y="0">cod</tspan><tspan class="cc" x="12.51" y="0">F</tspan><tspan class="bn" x="16.77" y="0">actura</tspan></text><rect x="304.7" y="134.83" width="39.04" height=".58"/></g></g><g><ellipse class="w" cx="340.27" cy="151.6" rx="28.79" ry="7.69"/><text class="e" transform="translate(320.07 153.82)"><tspan class="bn" x="0" y="0">mon</tspan><tspan class="bw" x="15" y="0">t</tspan><tspan class="cb" x="17.49" y="0">o_ne</tspan><tspan class="aw" x="32.4" y="0">t</tspan><tspan class="bn" x="34.89" y="0">o</tspan></text></g><g><ellipse class="w" cx="324.22" cy="170.89" rx="28.79" ry="7.69"/><text class="e" transform="translate(299.26 173.11)"><tspan class="bn" x="0" y="0">calc_impues</tspan><tspan class="aw" x="39.94" y="0">t</tspan><tspan class="bn" x="42.43" y="0">os</tspan></text></g><g><ellipse class="w" cx="281.75" cy="186.35" rx="28.79" ry="7.69"/><text class="m" transform="translate(256.79 188.58)"><tspan x="0" y="0">cod_correlativo</tspan></text></g><line class="aa" x1="290.92" y1="111.96" x2="265.24" y2="150.96"/><line class="aa" x1="295.43" y1="132.31" x2="265.24" y2="150.96"/><line class="aa" x1="311.48" y1="151.6" x2="265.24" y2="150.96"/><line class="aa" x1="295.43" y1="170.89" x2="265.24" y2="150.96"/><line class="aa" x1="280.34" y1="178.66" x2="265.24" y2="150.96"/><path class="ab" d="M102.84,231.52H42.19v309.07"/><polyline class="aa" points="135.92 566.26 135.92 560.77 62.37 560.77"/><rect class="x" x="135.49" y="135.2" width="32.8" height="32.8" transform="translate(-62.71 151.81) rotate(-45)"/><rect class="bf" x="347.15" y="643.96" width="28.53" height="28.53" transform="translate(-359.58 448.35) rotate(-45)"/><text class="ao" transform="translate(345.83 659.84)"><tspan x="0" y="0">R</tspan><tspan class="bl" x="3.42" y="0">E</tspan><tspan class="bh" x="6.42" y="0">A</tspan><tspan class="cj" x="10.06" y="0">C</tspan><tspan class="aq" x="13.94" y="0">C</tspan><tspan class="bo" x="17.88" y="0">IONA</tspan></text><path class="ab" d="M341.24,658.23h-111.12v17.54"/><rect class="bf" x="489.05" y="688.16" width="28.53" height="28.53" transform="translate(-349.27 561.64) rotate(-45)"/><line class="ab" x1="483.14" y1="702.42" x2="399.28" y2="702.42"/><rect class="al" x="321.05" y="694.72" width="78.23" height="15.65" rx="5.85" ry="5.85"/><text class="ai" transform="translate(329.51 706.12)"><tspan x="0" y="0">INTER</tspan><tspan class="ax" x="25.1" y="0">A</tspan><tspan class="bc" x="31.34" y="0">C</tspan><tspan class="af" x="38" y="0">C</tspan><tspan x="44.75" y="0">IÓN</tspan></text><g><ellipse class="w" cx="385.93" cy="728.31" rx="28.79" ry="7.69"/><text class="h" transform="translate(366.05 730.44)"><tspan x="0" y="0">fec_reaccion</tspan></text></g><g><ellipse class="w" cx="322.84" cy="728.43" rx="30.21" ry="9.11"/><ellipse class="w" cx="322.83" cy="728.43" rx="28.79" ry="7.69"/><text class="h" transform="translate(301.38 730.56)"><tspan x="0" y="0">tipo_reaccion</tspan></text></g><line class="aa" x1="362.36" y1="709.9" x2="323.68" y2="720.74"/><line class="aa" x1="362.36" y1="709.9" x2="385.93" y2="720.62"/><line class="ab" x1="361.42" y1="678.41" x2="361.42" y2="694.72"/><path class="ab" d="M291.06,385.98h174.38V204.17"/><rect class="al" x="441.05" y="133.57" width="48.77" height="15.65" rx="5.85" ry="5.85"/><text class="ai" transform="translate(445.14 145.06)"><tspan x="0" y="0">I</tspan><tspan class="af" x="2.67" y="0">N</tspan><tspan class="bp" x="8.95" y="0">S</tspan><tspan x="14.48" y="0">IGNIA</tspan></text><g><ellipse class="w" cx="411.22" cy="169.62" rx="28.79" ry="7.69"/><text class="o" transform="translate(393 170.87)"><tspan x="0" y="0">nomInsignia</tspan></text><rect class="p" x="393.07" y="171.35" width="36.31" height=".63"/></g><line class="aa" x1="411.22" y1="161.92" x2="441.05" y2="141.64"/><line class="ab" x1="465.43" y1="164.6" x2="465.43" y2="149.02"/><line class="ab" x1="485.61" y1="184.77" x2="499.5" y2="184.22"/><path class="aa" d="M407.67,508.66h158.24c0,64.42-.02,128.85-.03,193.27-14.14,0-28.28,0-42.42,0"/><text class="am" transform="translate(493.82 704.58)"><tspan x="0" y="0">TIENE</tspan></text><line class="aa" x1="272.65" y1="104.26" x2="265.24" y2="150.96"/><line class="aa" x1="220.87" y1="691.42" x2="126.81" y2="701.23"/><g><ellipse class="w" cx="448.93" cy="727.88" rx="28.79" ry="7.69"/><g><text class="j" transform="translate(432.24 730)"><tspan class="bi" x="0" y="0">idIn</tspan><tspan class="ar" x="12.25" y="0">t</tspan><tspan class="bi" x="14.7" y="0">eracc</tspan></text><rect class="p" x="432.44" y="731.14" width="32.57" height=".58"/></g></g><line class="aa" x1="362.36" y1="709.9" x2="448.93" y2="720.18"/><text class="br" transform="translate(97.7 66.08)"><tspan class="bj" x="0" y="0">F</tspan><tspan class="r" x="8.74" y="0">ANHUB | PROPUE</tspan><tspan class="cf" x="151.04" y="0">S</tspan><tspan class="av" x="160.99" y="0">T</tspan><tspan class="r" x="170.17" y="0">A MODE</tspan><tspan class="ae" x="236.94" y="0">L</tspan><tspan x="245.87" y="0">O E/R-EXTENDIDO</tspan></text><rect class="v" x="90.32" y="50.06" width="410.89" height="20.59"/><g><text class="i" transform="translate(430.86 781.3)"><tspan class="t" x="0" y="0">A</tspan><tspan class="ay" x="7.26" y="0">tribu</tspan><tspan class="bd" x="28.39" y="0">t</tspan><tspan class="ay" x="31.8" y="0">os de las entidades</tspan></text><text class="i" transform="translate(47.31 760.23)"><tspan class="ay" x="0" y="0">LEYEN</tspan><tspan class="bb" x="33.95" y="0">D</tspan><tspan class="bu" x="41.32" y="0">A</tspan></text><text class="l" transform="translate(71.06 781.3)"><tspan x="0" y="0">Entidades del Modelo</tspan></text><text class="f" transform="translate(237.25 781.3)"><tspan x="0" y="0">Relaciones entre entidades</tspan></text><rect class="bs" x="404.19" y="773.6" width="8.52" height="8.52"/><rect class="bf" x="213.49" y="773.6" width="8.52" height="8.52"/><rect class="aj" x="47.31" y="773.6" width="8.52" height="8.52"/><text class="i" transform="translate(47.31 802.22)"><tspan class="ay" x="0" y="0">Restricciones de Dominio: (s) string, (e) en</tspan><tspan class="bd" x="183.57" y="0">t</tspan><tspan class="bu" x="186.98" y="0">ero, (r) real, (f) fecha, (b) booleano </tspan></text></g><text class="g" transform="translate(373.02 151.78)"><tspan x="0" y="0">(r)</tspan></text><text class="g" transform="translate(272.66 232.53)"><tspan x="0" y="0">(r)</tspan></text><text class="g" transform="translate(302.54 232.53)"><tspan x="0" y="0">(e)</tspan></text><text class="g" transform="translate(354.72 172.37)"><tspan x="0" y="0">(r)</tspan></text><text class="g" transform="translate(356.75 134.06)"><tspan x="0" y="0">(e)</tspan></text><text class="g" transform="translate(311.48 190.02)"><tspan x="0" y="0">(e)</tspan></text><text class="g" transform="translate(302.17 213.92)"><tspan x="0" y="0">(e)</tspan></text><text class="g" transform="translate(435.67 427.01)"><tspan x="0" y="0">(e)</tspan></text><text class="g" transform="translate(537.55 494.68)"><tspan x="0" y="0">(b)</tspan></text><text class="g" transform="translate(435.47 445.02)"><tspan x="0" y="0">(b)</tspan></text><text class="g" transform="translate(272.29 213.92)"><tspan x="0" y="0">(s)</tspan></text><text class="g" transform="translate(302.17 250.08)"><tspan x="0" y="0">(s)</tspan></text><text class="g" transform="translate(302.17 288.31)"><tspan x="0" y="0">(s)</tspan></text><text class="g" transform="translate(320.07 315.93)"><tspan x="0" y="0">(s)</tspan></text><text class="g" transform="translate(386.93 365.46)"><tspan x="0" y="0">(e)</tspan></text><text class="g" transform="translate(208.91 315.93)"><tspan x="0" y="0">(s)</tspan></text><text class="g" transform="translate(54.82 470.96)"><tspan x="0" y="0">(s)</tspan></text><text class="g" transform="translate(54.82 453.03)"><tspan x="0" y="0">(s)</tspan></text><text class="g" transform="translate(436.16 407.8)"><tspan x="0" y="0">(s)</tspan></text><text class="g" transform="translate(436.16 461.95)"><tspan x="0" y="0">(s)</tspan></text><text class="g" transform="translate(537.55 454.65)"><tspan x="0" y="0">(s)</tspan></text><text class="g" transform="translate(196.5 560.73)"><tspan x="0" y="0">(s)</tspan></text><text class="g" transform="translate(348.46 571.11)"><tspan x="0" y="0">(s)</tspan></text><text class="g" transform="translate(381.53 571.11)"><tspan x="0" y="0">(s)</tspan></text><text class="g" transform="translate(348.46 594.35)"><tspan x="0" y="0">(s)</tspan></text><text class="g" transform="translate(381.53 594.35)"><tspan x="0" y="0">(s)</tspan></text><text class="g" transform="translate(381.53 616.85)"><tspan x="0" y="0">(s)</tspan></text><text class="g" transform="translate(196.5 583.65)"><tspan x="0" y="0">(s)</tspan></text><text class="g" transform="translate(60.43 594.33)"><tspan x="0" y="0">(s)</tspan></text><text class="g" transform="translate(60.43 616.32)"><tspan x="0" y="0">(s)</tspan></text><text class="g" transform="translate(60.43 662.16)"><tspan x="0" y="0">(s)</tspan></text><text class="g" transform="translate(537.55 475.04)"><tspan x="0" y="0">(s)</tspan></text><text class="g" transform="translate(195.95 606.99)"><tspan x="0" y="0">(s)</tspan></text><text class="g" transform="translate(123.45 725.68)"><tspan x="0" y="0">(s)</tspan></text><text class="g" transform="translate(185.8 725.68)"><tspan x="0" y="0">(s)</tspan></text><text class="g" transform="translate(317.24 746.49)"><tspan x="0" y="0">(s)</tspan></text><text class="g" transform="translate(445.14 746.49)"><tspan x="0" y="0">(s)</tspan></text><text class="g" transform="translate(251.64 725.68)"><tspan x="0" y="0">(s)</tspan></text><text class="g" transform="translate(54.82 488.31)"><tspan x="0" y="0">(s)</tspan></text><text class="g" transform="translate(179.63 335.86)"><tspan x="0" y="0">(s)</tspan></text><text class="g" transform="translate(140.85 354.74)"><tspan x="0" y="0">(s)</tspan></text><text class="g" transform="translate(272.29 250.08)"><tspan x="0" y="0">(s)</tspan></text><text class="g" transform="translate(403.37 158.29)"><tspan x="0" y="0">(s)</tspan></text><text class="g" transform="translate(351.33 113.62)"><tspan x="0" y="0">(s)</tspan></text><text class="g" transform="translate(302.41 92.99)"><tspan x="0" y="0">(f)</tspan></text><text class="g" transform="translate(300.53 271.42)"><tspan x="0" y="0">(f)</tspan></text><text class="g" transform="translate(270.65 271.42)"><tspan x="0" y="0">(f)</tspan></text><text class="g" transform="translate(270.65 288.31)"><tspan x="0" y="0">(f)</tspan></text><text class="g" transform="translate(344.33 333.75)"><tspan x="0" y="0">(f)</tspan></text><text class="g" transform="translate(537.55 435.86)"><tspan x="0" y="0">(f)</tspan></text><text class="g" transform="translate(516.49 547.88)"><tspan x="0" y="0">(f)</tspan></text><text class="g" transform="translate(472.73 590.92)"><tspan x="0" y="0">1</tspan></text><text class="g" transform="translate(515.97 590.92)"><tspan x="0" y="0">N</tspan></text><text class="g" transform="translate(385.93 744.3)"><tspan x="0" y="0">(f)</tspan></text><text class="g" transform="translate(525.48 173.11)"><tspan x="0" y="0">(f)</tspan></text><text class="g" transform="translate(60.43 639.41)"><tspan x="0" y="0">(r)</tspan></text><polyline class="aa" points="130.99 660.04 136.08 660.04 136.08 637.51 136.08 614.6 136.08 591.68 136.08 582.17"/><line class="aa" x1="474.99" y1="472.47" x2="408.63" y2="503.72"/><line class="aa" x1="474.99" y1="452.93" x2="408.63" y2="503.72"/><line class="aa" x1="474.99" y1="433.39" x2="408.63" y2="503.72"/><line class="aa" x1="374.2" y1="461.66" x2="341.18" y2="420.61"/><polyline class="aa" points="506.27 536.85 514.98 536.85 514.98 552.52"/><rect class="x" x="482.74" y="579.52" width="26.93" height="26.93" transform="translate(1266.37 661.42) rotate(135)"/><rect class="bf" x="484.15" y="580.94" width="24.1" height="24.1" transform="translate(-273.97 524.55) rotate(-45)"/><text class="am" transform="translate(486.79 596.13)"><tspan x="0" y="0">TIENE</tspan></text><polyline class="aa" points="515.24 592.99 520.7 592.99 520.7 616.16"/><polyline class="ab" points="181.26 683.6 150.79 683.6 150.79 648.9 169.23 648.9"/><polyline class="ab" points="193.4 648.9 205.66 648.9 205.66 675.77"/><rect class="bf" x="165.87" y="636.85" width="24.1" height="24.1" transform="translate(-406.73 315.87) rotate(-45)"/><text class="an" transform="translate(168.99 651.33)"><tspan x="0" y="0">REP</tspan><tspan class="ag" x="11.21" y="0">L</tspan><tspan x="13.73" y="0">Y</tspan></text><line class="aa" x1="517.04" y1="631.88" x2="517.04" y2="638.89"/><path class="aa" d="M517.5,631.88c-21.66,2.36-43.32,4.72-64.98,7.08"/></svg>